<svg width="155" height="155" viewBox="0 0 155 155" fill="none" xmlns="http://www.w3.org/2000/svg">
<path d="M26.6466 84.0166C30.1905 84.0166 33.0633 81.1438 33.0633 77.6C33.0633 74.0561 30.1905 71.1833 26.6466 71.1833C23.1028 71.1833 20.23 74.0561 20.23 77.6C20.23 81.1438 23.1028 84.0166 26.6466 84.0166Z" fill="white" stroke="white" stroke-width="7"/>
<path d="M77.98 84.0166C81.5238 84.0166 84.3967 81.1438 84.3967 77.6C84.3967 74.0561 81.5238 71.1833 77.98 71.1833C74.4362 71.1833 71.5634 74.0561 71.5634 77.6C71.5634 81.1438 74.4362 84.0166 77.98 84.0166Z" fill="white" stroke="white" stroke-width="7"/>
<path d="M129.313 84.0166C132.857 84.0166 135.73 81.1438 135.73 77.6C135.73 74.0561 132.857 71.1833 129.313 71.1833C125.769 71.1833 122.897 74.0561 122.897 77.6C122.897 81.1438 125.769 84.0166 129.313 84.0166Z" fill="white" stroke="white" stroke-width="7"/>
</svg>
