<svg width="206" height="155" viewBox="0 0 206 155" fill="none" xmlns="http://www.w3.org/2000/svg">
<g clip-path="url(#clip0_578_284)">
<path d="M176.684 89.2414C169.54 89.2783 163.331 90.9987 158.133 93.5422C156.225 89.7643 154.318 86.3988 153.982 83.93C153.607 81.0505 153.159 79.2923 153.607 75.8514C154.056 72.4105 156.076 67.5105 156.038 67.1368C156.001 66.763 155.589 65.0048 151.475 64.9679C147.361 64.9302 143.808 65.7532 143.396 66.8376C142.985 67.922 142.2 70.3908 141.676 72.9334C140.965 76.6743 133.448 90.0258 129.147 97.02C127.763 94.2905 126.566 91.8963 126.304 89.9889C125.93 87.1095 125.481 85.3513 125.93 81.9103C126.379 78.4694 128.399 73.5703 128.361 73.1957C128.324 72.8219 127.912 71.0638 123.798 71.0269C119.684 70.9892 116.13 71.8121 115.72 72.8965C115.308 73.9818 114.859 76.5244 113.999 78.9932C113.139 81.462 103.153 103.753 100.535 109.512C99.4768 111.843 98.367 114.151 97.2061 116.432C97.2061 116.432 97.1684 116.544 97.0561 116.731C96.6914 117.447 96.3176 118.157 95.9348 118.863V118.9C95.3734 119.911 94.775 120.845 94.4758 120.845C94.2512 120.845 93.8398 118.152 94.5504 114.487C96.0463 106.745 99.5995 94.702 99.5626 94.2905C99.5626 94.0659 100.236 91.9717 97.2438 90.8865C94.3258 89.802 93.2791 91.5971 93.0168 91.5971C92.7554 91.5971 92.5677 92.2332 92.5677 92.2332C92.5677 92.2332 95.8225 78.694 86.3595 78.694C80.4506 78.694 72.2966 85.1644 68.2573 90.9987C63.6655 93.4976 59.0776 96.0036 54.4936 98.5167C52.2878 99.7511 50.0059 100.985 47.874 102.145C47.724 101.995 47.5748 101.808 47.4248 101.658C35.9799 89.4283 14.8113 80.7882 15.7088 64.3696C16.0457 58.3852 18.1023 42.6764 56.364 23.6021C87.8554 8.08018 112.915 12.3809 117.253 21.9185C123.462 35.5331 103.827 60.8164 71.2868 64.4811C58.8697 65.8655 52.3616 61.0778 50.7166 59.2828C48.9961 57.4123 48.7338 57.3 48.0978 57.6746C47.051 58.2361 47.724 59.9188 48.0978 60.8909C49.0707 63.4336 53.0723 67.922 59.8419 70.1293C65.8262 72.0736 80.3752 73.1588 97.9913 66.3515C117.702 58.7213 133.111 37.515 128.586 19.7497C124.06 1.72206 94.1389 -4.22458 65.8262 5.83595C48.9961 11.8211 30.7439 21.2456 17.6162 33.5134C2.01968 48.0993 -0.449136 60.7787 0.560686 66.0901C4.18931 84.9398 30.1832 97.2077 40.5806 106.296C40.0569 106.595 39.57 106.858 39.1593 107.082C33.9602 109.662 14.1376 120.022 9.20073 130.981C3.59096 143.398 10.0991 152.3 14.3998 153.496C27.7521 157.199 41.4782 150.542 48.8461 139.546C56.214 128.55 55.3165 114.262 51.9133 107.717C51.8756 107.643 51.8387 107.567 51.7633 107.493C53.11 106.708 54.4936 105.885 55.8403 105.099C58.3154 103.636 60.822 102.227 63.3582 100.872C62.0861 104.351 61.1509 108.503 60.7025 114.487C60.141 121.519 63.0205 130.644 66.7983 134.234C68.4819 135.806 70.4639 135.843 71.736 135.843C76.149 135.843 78.1318 132.178 80.3383 127.839C83.0309 122.529 85.462 116.357 85.462 116.357C85.462 116.357 82.4325 133.038 90.6611 133.038C93.6529 133.038 96.6824 129.148 98.0291 127.166V127.203C98.0291 127.203 98.1036 127.091 98.2536 126.829C98.5528 126.343 98.7397 126.043 98.7397 126.043V125.97C99.9364 123.875 102.63 119.125 106.631 111.233C111.793 101.06 116.767 88.3438 116.767 88.3438C116.767 88.3438 117.216 91.4479 118.749 96.6093C119.648 99.6388 121.516 102.967 123.013 106.184C121.816 107.867 121.068 108.802 121.068 108.802L121.106 108.839C120.133 110.111 119.086 111.494 117.926 112.842C113.849 117.703 108.988 123.277 108.314 124.884C107.528 126.792 107.716 128.176 109.212 129.298C110.297 130.121 112.241 130.233 114.224 130.121C117.889 129.859 120.47 128.961 121.741 128.401C123.724 127.69 126.043 126.605 128.211 124.997C132.214 122.042 134.644 117.816 134.42 112.244C134.308 109.176 133.298 106.109 132.064 103.229C132.438 102.706 132.774 102.182 133.149 101.658C139.469 92.42 144.369 82.2841 144.369 82.2841C144.369 82.2841 144.819 85.3882 146.351 90.5504C147.1 93.1684 148.633 96.011 149.979 98.7782C144.033 103.603 140.367 109.213 139.058 112.879C136.702 119.686 138.534 122.752 142.013 123.463C143.583 123.8 145.828 123.052 147.473 122.341C149.568 121.668 152.037 120.509 154.393 118.788C158.395 115.834 162.247 111.719 162.022 106.147C161.91 103.603 161.237 101.097 160.302 98.6659C165.351 96.5724 171.859 95.4126 180.162 96.3847C197.965 98.479 201.481 109.587 200.807 114.263C200.134 118.938 196.394 121.481 195.161 122.266C193.925 123.052 193.515 123.314 193.627 123.875C193.776 124.697 194.374 124.661 195.422 124.511C196.881 124.249 204.773 120.733 205.109 112.13C205.67 101.135 195.197 89.1291 176.684 89.2414ZM39.3462 135.544C33.4365 141.977 25.2087 144.408 21.6555 142.351C17.8408 140.144 19.3367 130.644 26.5923 123.838C31.0054 119.686 36.6905 115.833 40.4683 113.477C41.3282 112.953 42.6003 112.206 44.1339 111.271C44.3953 111.121 44.5453 111.046 44.5453 111.046L45.4429 110.485C48.0978 120.209 45.5552 128.774 39.3462 135.544ZM82.3579 106.296C80.3006 111.308 75.9998 124.137 73.3818 123.426C71.1376 122.828 69.7532 113.103 72.9327 103.491C74.5408 98.6659 77.9441 92.9061 79.9268 90.6627C83.1432 87.0718 86.6964 85.8742 87.5563 87.334C88.6415 89.2414 83.6292 103.154 82.3579 106.296ZM117.852 123.276C116.991 123.725 116.169 124.025 115.794 123.8C115.533 123.65 116.169 123.052 116.169 123.052C116.169 123.052 120.62 118.265 122.377 116.095C123.388 114.824 124.584 113.328 125.856 111.644V112.13C125.856 117.853 120.32 121.706 117.851 123.276H117.852ZM145.229 117.03C144.593 116.581 144.705 115.085 146.837 110.41C147.66 108.577 149.605 105.511 152.934 102.556C153.308 103.753 153.57 104.912 153.532 105.997C153.495 113.216 148.334 115.908 145.229 117.03Z" fill="#CD6799"/>
</g>
<defs>
<clipPath id="clip0_578_284">
<rect width="205.333" height="154" fill="white" transform="translate(0 0.599976)"/>
</clipPath>
</defs>
</svg>
