<svg width="154" height="175" viewBox="0 0 154 175" fill="none" xmlns="http://www.w3.org/2000/svg">
<path d="M76.9058 174.652L14.0152 157.193L0 0H154L139.97 157.169L76.9058 174.652V174.652Z" fill="#264DE4"/>
<path d="M127.959 147.161L139.948 12.8525H77V161.289L127.959 147.161V147.161Z" fill="#2965F1"/>
<path d="M32.1292 71.1536L33.8569 90.4327H77V71.1536H32.1292ZM28.657 32.1323L30.4094 51.4115H77V32.1323H28.657V32.1323ZM77 121.224L76.9155 121.246L55.4444 115.448L54.0717 100.073H34.7183L37.4191 130.344L76.9112 141.306L77 141.282V121.224Z" fill="#EBEBEB"/>
<path d="M121.748 71.1536L125.228 32.1323H76.9337V51.4115H104.1L102.345 71.1536H76.9337V90.4327H100.674L98.4355 115.436L76.9331 121.24V141.297L116.457 130.344L116.746 127.086L121.277 76.3306L121.748 71.1536V71.1536Z" fill="white"/>
</svg>
