<svg width="155" height="155" viewBox="0 0 155 155" fill="none" xmlns="http://www.w3.org/2000/svg">
<g clip-path="url(#clip0_578_251)">
<path d="M0.660034 0.599976H154.66V154.6H0.660034V0.599976Z" fill="#F7DF1E"/>
<path d="M41.1524 129.293L52.937 122.161C55.2109 126.192 57.2791 129.603 62.2402 129.603C66.9955 129.603 69.9943 127.743 69.9943 120.508V71.301H84.4661V120.712C84.4661 135.701 75.6797 142.524 62.8604 142.524C51.2833 142.524 44.5633 136.528 41.1518 129.292L41.1524 129.293ZM92.3267 127.743L104.11 120.92C107.212 125.986 111.244 129.707 118.376 129.707C124.373 129.707 128.197 126.709 128.197 122.574C128.197 117.612 124.268 115.855 117.653 112.961L114.035 111.409C103.594 106.965 96.6682 101.383 96.6682 89.5981C96.6682 78.7436 104.938 70.4733 117.86 70.4733C127.06 70.4733 133.676 73.6784 138.431 82.0515L127.163 89.2883C124.681 84.8434 121.995 83.0862 117.859 83.0862C113.621 83.0862 110.933 85.774 110.933 89.2883C110.933 93.6298 113.621 95.3882 119.823 98.076L123.441 99.6262C135.743 104.899 142.668 110.274 142.668 122.368C142.668 135.394 132.435 142.526 118.686 142.526C105.248 142.526 96.5641 136.117 92.3261 127.743" fill="black"/>
</g>
<defs>
<clipPath id="clip0_578_251">
<rect width="154" height="154" fill="white" transform="translate(0.660034 0.599976)"/>
</clipPath>
</defs>
</svg>
