<svg width="100" height="100" viewBox="0 0 100 100" fill="none" xmlns="http://www.w3.org/2000/svg">
<g filter="url(#filter0_d_651_330)">
<path d="M67.2222 0H33.7778C32.5106 0 31.2954 0.505713 30.3994 1.40589C29.5034 2.30606 29 3.52696 29 4.8V31.2C29 31.2 29 33.6 31.3889 36L46.7471 48H54.2529L69.6111 36C72 33.6 72 31.2 72 31.2V4.8C72 3.52696 71.4966 2.30606 70.6006 1.40589C69.7046 0.505713 68.4894 0 67.2222 0V0Z" fill="#55ACEE"/>
<path d="M36 0V39.732L46.7034 48H54.2966L65 39.732V0H36Z" fill="#E1E8ED"/>
<path d="M41 0V43.4664L46.7689 48H54.2311L60 43.4664V0H41Z" fill="#DD2E44"/>
<path d="M60.0111 49.8718C60.1652 49.471 60.2461 49.0464 60.25 48.6176C60.25 47.6582 59.8648 46.738 59.1791 46.0596C58.4934 45.3811 57.5634 45 56.5938 45H44.4062C43.4366 45 42.5066 45.3811 41.8209 46.0596C41.1352 46.738 40.75 47.6582 40.75 48.6176C40.75 49.059 40.8426 49.4786 40.9889 49.8718C37.9602 51.544 35.4376 53.9859 33.6816 56.9453C31.9256 59.9047 30.9999 63.2742 31 66.7059C31 71.823 33.0545 76.7305 36.7114 80.3489C40.3684 83.9672 45.3283 86 50.5 86C55.6717 86 60.6316 83.9672 64.2886 80.3489C67.9455 76.7305 70 71.823 70 66.7059C70 59.4706 65.9684 53.1735 60.0111 49.8718Z" fill="#FFAC33"/>
<path d="M50.5 81C58.5081 81 65 74.732 65 67C65 59.268 58.5081 53 50.5 53C42.4919 53 36 59.268 36 67C36 74.732 42.4919 81 50.5 81Z" fill="#FFD983"/>
<path d="M56.7775 76.998C56.4977 76.9983 56.225 76.9066 55.9978 76.736L50.4965 72.6113L44.9929 76.736C44.7652 76.9079 44.4914 77.0003 44.2105 77C43.9296 76.9997 43.656 76.9068 43.4286 76.7344C43.2012 76.562 43.0317 76.3191 42.9442 76.0401C42.8567 75.7611 42.8557 75.4604 42.9414 75.1808L44.9929 68.2583L39.5398 64.2418C39.315 64.067 39.1483 63.823 39.0632 63.544C38.9781 63.265 38.979 62.9652 39.0656 62.6867C39.1522 62.4082 39.3202 62.1652 39.546 61.9918C39.7718 61.8184 40.0439 61.7235 40.3241 61.7203L47.0789 61.7107L49.2293 54.9588C49.317 54.6799 49.4867 54.437 49.7143 54.2649C49.9418 54.0927 50.2156 54 50.4965 54C50.7774 54 51.0512 54.0927 51.2787 54.2649C51.5063 54.437 51.676 54.6799 51.7637 54.9588L53.8773 61.7107L60.6666 61.7203C60.9482 61.7204 61.2225 61.8137 61.4503 61.9867C61.6781 62.1597 61.8476 62.4036 61.9347 62.6835C62.0217 62.9633 62.0218 63.2648 61.9349 63.5447C61.848 63.8246 61.6785 64.0686 61.4509 64.2418L55.9978 68.2583L58.0493 75.1808C58.113 75.3899 58.1286 75.6117 58.0948 75.8282C58.0611 76.0448 57.9789 76.2499 57.8549 76.427C57.731 76.604 57.5688 76.7481 57.3816 76.8473C57.1944 76.9465 56.9874 76.9982 56.7775 76.998V76.998Z" fill="#FFAC33"/>
</g>
<defs>
<filter id="filter0_d_651_330" x="-4" y="0" width="108" height="108" filterUnits="userSpaceOnUse" color-interpolation-filters="sRGB">
<feFlood flood-opacity="0" result="BackgroundImageFix"/>
<feColorMatrix in="SourceAlpha" type="matrix" values="0 0 0 0 0 0 0 0 0 0 0 0 0 0 0 0 0 0 127 0" result="hardAlpha"/>
<feOffset dy="4"/>
<feGaussianBlur stdDeviation="2"/>
<feComposite in2="hardAlpha" operator="out"/>
<feColorMatrix type="matrix" values="0 0 0 0 0 0 0 0 0 0 0 0 0 0 0 0 0 0 0.25 0"/>
<feBlend mode="normal" in2="BackgroundImageFix" result="effect1_dropShadow_651_330"/>
<feBlend mode="normal" in="SourceGraphic" in2="effect1_dropShadow_651_330" result="shape"/>
</filter>
</defs>
</svg>
