<svg width="154" height="154" viewBox="0 0 154 154" fill="none" xmlns="http://www.w3.org/2000/svg">
<g clip-path="url(#clip0_764_330)">
<path fill-rule="evenodd" clip-rule="evenodd" d="M143.386 73.229C143.248 73.2567 143.109 73.562 143.109 73.7283C143.081 74.8388 143.054 77.7811 143.054 79.7794C143.054 79.8351 143.137 79.9461 143.22 79.9461C143.636 79.9738 144.635 80.0014 145.496 80.0014C146.69 80.0014 147.383 79.8351 147.772 79.6688C148.771 79.1689 149.243 78.0864 149.243 76.8926C149.243 74.2006 147.356 73.1734 144.552 73.1734C144.358 73.1457 143.803 73.1457 143.386 73.229V73.229ZM150.548 85.6363C150.548 82.8883 148.522 81.3616 144.858 81.3616C144.691 81.3616 143.525 81.3339 143.248 81.3892C143.164 81.4172 143.054 81.4728 143.054 81.5562C143.054 83.5266 143.026 86.6634 143.109 87.8846C143.164 88.4119 143.553 89.1614 144.025 89.3834C144.525 89.661 145.663 89.7164 146.44 89.7164C148.633 89.7164 150.548 88.4952 150.548 85.6363V85.6363ZM137.724 71.7026C138.002 71.7026 138.834 71.7856 140.972 71.7856C142.998 71.7856 144.608 71.7302 146.579 71.7302C148.993 71.7302 152.324 72.5905 152.324 76.1989C152.324 77.9754 151.075 79.3911 149.437 80.085C149.354 80.1127 149.354 80.1681 149.437 80.1957C151.769 80.7789 153.823 82.2221 153.823 84.9421C153.823 87.607 152.158 89.3001 149.743 90.3549C148.272 90.9932 146.44 91.2152 144.58 91.2152C143.164 91.2152 139.362 91.0488 137.253 91.1045C137.031 91.0208 137.447 90.0217 137.641 89.8553C138.141 89.8273 138.529 89.7997 139.057 89.633C139.806 89.439 139.889 89.2168 140 88.0789C140.056 87.1074 140.056 83.6652 140.056 81.2229C140.056 77.8644 140.084 75.5884 140.056 74.4782C140.028 73.6179 139.723 73.34 139.112 73.1734C138.64 73.0904 137.863 72.9791 137.225 72.8961C137.086 72.7571 137.558 71.8133 137.724 71.7026ZM121.708 88.9671C122.375 89.4941 123.679 89.7161 124.845 89.7161C126.344 89.7161 127.843 89.439 129.286 88.1339C130.757 86.8021 131.784 84.7481 131.784 81.4728C131.784 78.336 130.591 75.7824 128.148 74.2839C126.76 73.423 124.984 73.0627 122.93 73.0627C122.319 73.0627 121.736 73.0904 121.376 73.2567C121.292 73.3124 121.098 73.562 121.098 73.7007C121.043 74.2559 121.043 78.5303 121.043 81.0286C121.043 83.6099 121.043 87.2184 121.098 87.6347C121.098 88.0512 121.292 88.6895 121.709 88.9671H121.708ZM115.408 71.7023C115.935 71.7023 117.961 71.7856 118.933 71.7856C120.682 71.7856 121.931 71.7026 125.234 71.7026C128.009 71.7026 130.341 72.4518 132.006 73.8673C134.032 75.616 135.088 78.031 135.088 80.9729C135.088 85.1643 133.172 87.5793 131.257 88.9671C129.342 90.3826 126.844 91.2152 123.291 91.2152C121.403 91.2152 118.156 91.1598 115.463 91.1318H115.436C115.297 90.8822 115.658 89.9107 115.88 89.883C116.601 89.7997 116.796 89.7717 117.157 89.6333C117.739 89.4111 117.851 89.1058 117.934 88.0789C118.017 86.1635 117.989 83.8598 117.989 81.2506C117.989 79.3911 118.017 75.7547 117.961 74.5889C117.878 73.6176 117.462 73.3677 116.629 73.2011C116.213 73.118 115.658 73.0068 114.881 72.9237C114.769 72.7291 115.269 71.8689 115.408 71.7026V71.7023Z" fill="#8E714E"/>
<path fill-rule="evenodd" clip-rule="evenodd" d="M81.8225 90.0494C81.1285 89.9661 80.629 89.8554 80.0184 89.5778C79.9351 89.5221 79.7961 89.2448 79.7961 89.1335C79.7407 88.162 79.7407 85.3864 79.7407 83.527C79.7407 82.0279 79.4911 80.7234 78.8525 79.8075C78.103 78.7524 77.0208 78.1421 75.6327 78.1421C74.4115 78.1421 72.7738 78.9747 71.4136 80.1405C71.3859 80.1682 71.164 80.3628 71.1916 80.0572C71.1916 79.7519 71.2473 79.1413 71.275 78.7247C71.3029 78.3361 71.0807 78.1421 71.0807 78.1421C70.1924 78.586 67.6945 79.169 66.7783 79.252C66.1124 79.3912 65.9457 80.0295 66.6399 80.2515H66.6676C67.4165 80.4734 67.9164 80.7234 68.3047 80.9733C68.5824 81.1953 68.5547 81.5006 68.5547 81.7506C68.5824 83.832 68.5824 87.0242 68.4994 88.7729C68.4717 89.4668 68.2774 89.7165 67.7775 89.8274L67.8331 89.7998C67.4445 89.8831 67.1392 89.9661 66.6673 90.0217C66.5007 90.1884 66.5007 91.0766 66.6673 91.2709C66.9726 91.2709 68.5824 91.1876 69.9151 91.1876C71.7469 91.1876 72.6907 91.2709 73.1624 91.2709C73.3567 91.0489 73.4123 90.2161 73.3013 90.0217C72.7738 89.9941 72.3851 89.9387 72.0245 89.8274C71.5249 89.7162 71.3859 89.4668 71.358 88.8839C71.3029 87.4125 71.3029 84.3039 71.3029 82.1945C71.3029 81.6116 71.4693 81.334 71.6356 81.1673C72.2742 80.6124 73.3013 80.2238 74.2172 80.2238C75.1054 80.2238 75.688 80.5014 76.1323 80.8624C76.7429 81.3617 76.9372 82.0835 77.0205 82.6108C77.1591 83.8043 77.1038 86.1636 77.1038 88.2177C77.1038 89.3278 77.0205 89.6055 76.6045 89.7441C76.4099 89.8274 75.9103 89.9387 75.3274 89.9938C75.1331 90.1884 75.1887 91.0489 75.3274 91.2432C76.1323 91.2432 77.0761 91.1599 78.4639 91.1599C80.1847 91.1599 81.2952 91.2432 81.7394 91.2432C81.8778 91.0766 81.9334 90.2717 81.8225 90.0494V90.0494ZM89.511 79.4469C88.0402 79.4469 87.124 80.5847 87.124 82.3608C87.124 84.1652 87.9289 86.2469 90.2049 86.2469C90.5935 86.2469 91.3154 86.0803 91.6481 85.6917C92.1756 85.1924 92.5366 84.1929 92.5366 83.1381C92.5366 80.8344 91.3984 79.4466 89.511 79.4466V79.4469ZM89.3167 91.7148C88.7618 91.7148 88.3729 91.8815 88.1232 92.0204C86.9574 92.7694 86.4301 93.4913 86.4301 94.3521C86.4301 95.1567 86.7354 95.7949 87.4016 96.3502C88.2065 97.0441 89.3167 97.3774 90.7322 97.3774C93.5634 97.3774 94.8126 95.8506 94.8126 94.3521C94.8126 93.297 94.285 92.6031 93.2028 92.2147C92.4256 91.8815 91.0101 91.7148 89.3167 91.7148V91.7148ZM89.511 98.9318C87.8179 98.9318 86.5965 98.5709 85.5419 97.766C84.5147 96.9887 84.0708 95.8229 84.0708 95.018C84.0708 94.796 84.1264 94.1852 84.626 93.6302C84.931 93.297 85.5976 92.6587 87.1797 91.5762C87.235 91.5485 87.2627 91.5208 87.2627 91.4649C87.2627 91.4096 87.207 91.3539 87.1517 91.3265C85.8472 90.8269 85.4586 90.0217 85.3473 89.5778V89.5222C85.3199 89.3555 85.2643 89.1892 85.5142 89.0226C85.7085 88.8839 85.9862 88.7173 86.2912 88.5233C86.7631 88.2453 87.2627 87.94 87.568 87.6901C87.6236 87.6347 87.6236 87.5794 87.6236 87.5238C87.6236 87.4681 87.568 87.4125 87.5123 87.3851C85.5699 86.7465 84.5984 85.3031 84.5984 83.1381C84.5984 81.7226 85.2366 80.4458 86.3745 79.6409C87.1517 79.0303 89.0947 78.2808 90.3716 78.2808H90.4549C91.7594 78.3084 92.4809 78.586 93.5078 78.947C94.063 79.1413 94.5906 79.2243 95.3125 79.2243C96.3947 79.2243 96.8666 78.8913 97.2549 78.503C97.2829 78.5584 97.3386 78.6973 97.3662 79.058C97.3939 79.4189 97.2829 79.9462 97.0053 80.3348C96.7833 80.6401 96.2837 80.8624 95.7841 80.8624H95.6452C95.1456 80.8067 94.9233 80.7511 94.9233 80.7511L94.8126 80.8067C94.7849 80.8624 94.8126 80.9177 94.8403 81.001L94.8682 81.0567C94.9236 81.3063 95.0346 82.0556 95.0346 82.2502C95.0346 84.5262 94.1187 85.5251 93.1472 86.2746C92.2033 86.9685 91.1211 87.4125 89.8996 87.5238C89.872 87.5238 89.7613 87.5238 89.511 87.5514C89.3724 87.5514 89.1781 87.5794 89.1501 87.5794H89.1224C88.9004 87.6347 88.3455 87.9124 88.3455 88.384C88.3455 88.8003 88.5951 89.3002 89.7886 89.3835C90.0383 89.4112 90.2879 89.4112 90.5659 89.4391C92.148 89.5498 94.1187 89.6888 95.0346 89.9941C96.3114 90.4657 97.1163 91.6039 97.1163 92.964C97.1163 95.0183 95.6455 96.9334 93.2028 98.1266C92.0093 98.6542 90.8155 98.9318 89.511 98.9318V98.9318ZM105.332 79.5855C104.75 79.5855 104.222 79.7239 103.833 80.0015C102.751 80.6677 102.196 82.0002 102.196 83.943C102.196 87.5794 104.028 90.133 106.637 90.133C107.414 90.133 108.025 89.9108 108.552 89.4668C109.357 88.8003 109.773 87.4681 109.773 85.6084C109.773 82.0002 107.969 79.5852 105.332 79.5852L105.332 79.5855ZM105.832 91.4652C101.113 91.4652 99.4203 87.9957 99.4203 84.7481C99.4203 82.4721 100.336 80.7234 102.168 79.4743C103.473 78.6694 105.027 78.2254 106.415 78.2254C110.023 78.2254 112.549 80.8067 112.549 84.5262C112.549 87.0518 111.55 89.0502 109.634 90.2717C108.719 90.8823 107.136 91.4652 105.832 91.4652H105.832V91.4652ZM56.3697 79.5852C55.7868 79.5852 55.2596 79.7239 54.8706 80.0015C53.7884 80.6677 53.2332 82.0002 53.2332 83.943C53.2332 87.5794 55.065 90.133 57.6742 90.133C58.4514 90.133 59.062 89.9108 59.5896 89.4668C60.3942 88.8003 60.8108 87.4681 60.8108 85.6084C60.8108 82.0002 59.0344 79.5852 56.3697 79.5852ZM56.8693 91.4652C52.1507 91.4652 50.4576 87.9957 50.4576 84.7481C50.4576 82.4721 51.3735 80.7234 53.2052 79.4743C54.51 78.6694 56.0644 78.2254 57.4523 78.2254C61.0607 78.2254 63.5864 80.8067 63.5864 84.5262C63.5864 87.0518 62.5872 89.0502 60.6718 90.2717C59.7836 90.8823 58.2015 91.4652 56.8693 91.4652ZM25.1435 91.1876C25.0879 91.1046 25.0322 90.8546 25.0602 90.5493C25.0602 90.327 25.1159 90.1884 25.1435 90.133C25.7264 90.0494 26.0317 89.9661 26.3647 89.8831C26.9199 89.7441 27.1419 89.4391 27.1696 88.7452C27.2532 87.0798 27.2532 83.9153 27.2252 81.7226V81.6669C27.2252 81.4173 27.2252 81.1117 26.9199 80.8897C26.4757 80.6124 25.9484 80.3628 25.2545 80.1679C25.0049 80.0851 24.8382 79.9462 24.8659 79.7798C24.8659 79.6132 25.0325 79.4189 25.3935 79.3633C26.3094 79.2799 28.6961 78.6973 29.6399 78.2808C29.6956 78.3361 29.7789 78.503 29.7789 78.725L29.7512 79.03C29.7232 79.3356 29.6956 79.6965 29.6956 80.0572C29.6956 80.1682 29.8068 80.2515 29.9175 80.2515C29.9732 80.2515 30.0288 80.2238 30.0842 80.1958C31.8606 78.808 33.4704 78.3084 34.3029 78.3084C35.6634 78.3084 36.7182 78.947 37.5231 80.2791C37.5784 80.3628 37.6341 80.3904 37.7174 80.3904C37.7727 80.3904 37.8558 80.3628 37.8837 80.3071C39.5215 79.058 41.1592 78.3084 42.2414 78.3084C44.8227 78.3084 46.3495 80.2238 46.3495 83.4713C46.3495 84.3872 46.3495 85.5807 46.3218 86.6635C46.3218 87.6347 46.2942 88.523 46.2942 89.1615C46.2942 89.2999 46.4882 89.7441 46.7935 89.8274C47.1821 90.0217 47.7096 90.1051 48.4035 90.2161H48.4312C48.4869 90.4104 48.3759 91.1319 48.2649 91.2709C48.0983 91.2709 47.8483 91.2709 47.571 91.2432C46.8684 91.2066 46.1649 91.188 45.4613 91.1876C43.7405 91.1876 42.8523 91.2152 41.9915 91.2709C41.9365 91.0489 41.9085 90.3827 41.9915 90.2161C42.4914 90.133 42.741 90.0494 43.0466 89.9664C43.6019 89.7998 43.7405 89.5498 43.7685 88.8282C43.7685 88.301 43.8792 83.8043 43.7126 82.7218C43.5462 81.6116 42.7134 80.3071 40.8813 80.3071C40.1874 80.3071 39.1052 80.5847 38.0504 81.3893C37.995 81.445 37.9391 81.5836 37.9391 81.6669V81.6949C38.0504 82.2775 38.0504 82.9441 38.0504 83.9709V85.775C38.0504 87.0242 38.0224 88.19 38.0504 89.0779C38.0504 89.6888 38.4113 89.8274 38.7166 89.9387C38.8832 89.9661 38.9939 89.9941 39.1329 90.0217C39.3825 90.0774 39.6325 90.133 40.0211 90.2161C40.0767 90.3273 40.0767 90.688 39.9934 90.9933C39.9654 91.1599 39.9098 91.2429 39.8821 91.2709C38.9386 91.2432 37.967 91.2152 36.5516 91.2152C36.1353 91.2152 35.4134 91.2432 34.8028 91.2432C34.3029 91.2432 33.8313 91.2709 33.554 91.2709C33.526 91.2152 33.4704 91.0212 33.4704 90.7156C33.4704 90.466 33.526 90.2717 33.5817 90.2161C33.7203 90.1884 33.8313 90.1607 33.9703 90.1607C34.3029 90.1051 34.5808 90.0494 34.8582 89.9941C35.3304 89.8554 35.4967 89.6055 35.5244 88.9949C35.6077 87.6071 35.691 83.638 35.4967 82.6385C35.1638 81.0287 34.2479 80.2238 32.7765 80.2238C31.9162 80.2238 30.8334 80.6401 29.9455 81.3066C29.8065 81.4173 29.6956 81.6946 29.6956 81.9446V83.5823C29.6956 85.5807 29.6956 88.079 29.7232 89.1615C29.7512 89.4942 29.8619 89.8831 30.5004 90.0217C30.6394 90.0494 30.8614 90.1051 31.139 90.133L31.6383 90.2161C31.6942 90.3827 31.6663 91.0489 31.5553 91.2709C31.2777 91.2709 30.9447 91.2432 30.5558 91.2432C29.9732 91.2152 29.2236 91.1876 28.3911 91.1876C27.4195 91.1876 26.7256 91.2152 26.1704 91.2432C25.7818 91.1876 25.4765 91.1876 25.1435 91.1876V91.1876Z" fill="#442D22"/>
<path fill-rule="evenodd" clip-rule="evenodd" d="M10.5433 97.8493L9.40549 97.4604C9.40549 97.4604 9.54445 91.6595 7.46244 91.2432C6.07494 89.6331 7.68502 22.962 12.681 91.0209C12.681 91.0209 10.9599 91.8812 10.6546 93.3526C10.3214 94.796 10.5433 97.8493 10.5433 97.8493V97.8493Z" fill="white"/>
<path fill-rule="evenodd" clip-rule="evenodd" d="M10.5433 97.8493L9.40549 97.4604C9.40549 97.4604 9.54445 91.6595 7.46244 91.2432C6.07494 89.6331 7.68502 22.962 12.681 91.0209C12.681 91.0209 10.9599 91.8812 10.6546 93.3526C10.3214 94.796 10.5433 97.8493 10.5433 97.8493V97.8493Z" fill="#A6A385"/>
<path fill-rule="evenodd" clip-rule="evenodd" d="M11.1541 92.2424C11.1541 92.2424 21.119 85.6917 18.7871 72.063C16.539 62.1544 11.2375 58.9068 10.6545 57.6577C10.0163 56.7695 9.4054 55.2153 9.4054 55.2153L9.82198 82.7771C9.82198 82.8051 8.96144 91.2152 11.1544 92.2427" fill="white"/>
<path fill-rule="evenodd" clip-rule="evenodd" d="M11.1541 92.2424C11.1541 92.2424 21.119 85.6917 18.7871 72.063C16.539 62.1544 11.2375 58.9068 10.6545 57.6577C10.0163 56.7695 9.4054 55.2153 9.4054 55.2153L9.82198 82.7771C9.82198 82.8051 8.96144 91.2152 11.1544 92.2427" fill="#499D4A"/>
<path fill-rule="evenodd" clip-rule="evenodd" d="M8.82283 92.603C8.82283 92.603 -0.531467 86.2189 0.023775 74.9778C0.551045 63.7364 7.1571 58.2129 8.43392 57.2137C9.26678 56.3255 9.29445 55.9922 9.3501 55.104C9.93301 56.3531 9.82203 73.7843 9.90504 75.8381C10.1547 83.7486 9.46109 91.1045 8.82283 92.603Z" fill="white"/>
<path fill-rule="evenodd" clip-rule="evenodd" d="M8.82283 92.603C8.82283 92.603 -0.531467 86.2189 0.023775 74.9778C0.551045 63.7364 7.1571 58.2129 8.43392 57.2137C9.26678 56.3255 9.29445 55.9922 9.3501 55.104C9.93301 56.3531 9.82203 73.7843 9.90504 75.8381C10.1547 83.7486 9.46109 91.1045 8.82283 92.603Z" fill="#58AA50"/>
</g>
<defs>
<clipPath id="clip0_764_330">
<rect width="154" height="154" fill="white"/>
</clipPath>
</defs>
</svg>
