<svg width="155" height="155" viewBox="0 0 155 155" fill="none" xmlns="http://www.w3.org/2000/svg">
<g clip-path="url(#clip0_578_295)">
<path d="M38.8201 61.2666C43.9534 40.1555 56.7867 29.6 77.3201 29.6C108.12 29.6 111.97 53.35 127.37 57.3083C137.637 59.9472 146.62 55.9889 154.32 45.4333C149.187 66.5444 136.353 77.1 115.82 77.1C85.0201 77.1 81.1701 53.35 65.7701 49.3916C55.5034 46.7528 46.5201 50.7111 38.8201 61.2666ZM0.320068 108.767C5.4534 87.6555 18.2867 77.1 38.8201 77.1C69.6201 77.1 73.4701 100.85 88.8701 104.808C99.1367 107.447 108.12 103.489 115.82 92.9333C110.687 114.044 97.8534 124.6 77.3201 124.6C46.5201 124.6 42.6701 100.85 27.2701 96.8916C17.0034 94.2528 8.02007 98.2111 0.320068 108.767Z" fill="#44A8B3"/>
</g>
<defs>
<clipPath id="clip0_578_295">
<rect width="154" height="154" fill="white" transform="translate(0.320068 0.599976)"/>
</clipPath>
</defs>
</svg>
