<svg width="194" height="155" viewBox="0 0 194 155" fill="none" xmlns="http://www.w3.org/2000/svg">
<g clip-path="url(#clip0_578_289)">
<rect x="45.66" y="24.6" width="104" height="105" fill="white"/>
<path d="M40.7997 0.599976C29.7728 0.599976 21.6131 10.2514 21.9785 20.7181C22.3295 30.7734 21.8735 43.7977 18.595 54.4184C15.3066 65.0701 9.74452 71.8174 0.660034 72.6841V82.4646C9.74452 83.3312 15.3066 90.0785 18.595 100.731C21.8735 111.352 22.3295 124.374 21.9785 134.43C21.6131 144.896 29.7728 154.549 40.8012 154.549H153.79C164.817 154.549 172.975 144.897 172.609 134.43C172.259 124.375 172.714 111.352 175.993 100.731C179.283 90.0793 184.83 83.3304 193.915 82.4646V72.6841C184.83 71.8174 179.283 65.0701 175.994 54.4184C172.714 43.7992 172.259 30.7742 172.609 20.7181C172.975 10.2529 164.817 0.599976 153.79 0.599976H40.7982H40.7997ZM131.681 95.3651C131.681 109.778 120.931 118.518 103.091 118.518H72.7215C71.8529 118.518 71.0199 118.173 70.4058 117.558C69.7917 116.944 69.4467 116.111 69.4467 115.242V39.9062C69.4466 39.476 69.5312 39.05 69.6958 38.6525C69.8604 38.255 70.1016 37.8938 70.4058 37.5896C70.71 37.2853 71.0711 37.044 71.4686 36.8793C71.866 36.7147 72.292 36.6299 72.7222 36.6299H102.918C117.793 36.6299 127.555 44.6885 127.555 57.0598C127.555 65.7435 120.988 73.5175 112.621 74.8785V75.3323C124.012 76.5816 131.681 84.4696 131.681 95.3651ZM99.7787 47.0136H82.4635V71.4724H97.0482C108.322 71.4724 114.539 66.9325 114.539 58.8173C114.539 51.2131 109.193 47.0136 99.7794 47.0136H99.7787ZM82.4635 81.1775V108.131H100.417C112.154 108.131 118.373 103.421 118.373 94.5694C118.373 85.7159 111.981 81.1759 99.6617 81.1759H82.4635V81.1775Z" fill="#7E13F8"/>
</g>
<defs>
<clipPath id="clip0_578_289">
<rect width="193.255" height="154" fill="white" transform="translate(0.660034 0.599976)"/>
</clipPath>
</defs>
</svg>
