<svg width="114" height="155" viewBox="0 0 114 155" fill="none" xmlns="http://www.w3.org/2000/svg">
<g clip-path="url(#clip0_613_274)">
<path d="M36.7623 119.649C36.7623 119.649 30.8851 123.065 40.9451 124.221C53.1329 125.61 59.3615 125.411 72.7926 122.87C72.7926 122.87 76.3239 125.083 81.2548 127C51.1468 139.897 13.1136 126.253 36.7623 119.649ZM33.0831 102.818C33.0831 102.818 26.4912 107.695 36.5588 108.736C49.578 110.078 59.8593 110.188 77.6505 106.764C77.6505 106.764 80.1113 109.258 83.9806 110.621C47.5776 121.261 7.03148 111.46 33.0831 102.818Z" fill="#5382A1"/>
<path d="M64.0991 74.2685C71.5181 82.8053 62.15 90.4874 62.15 90.4874C62.15 90.4874 80.9872 80.7681 72.3361 68.5968C64.2563 57.247 58.0598 51.6069 91.6039 32.1628C91.6039 32.1628 38.951 45.3063 64.0991 74.268" fill="#E76F00"/>
<path d="M103.92 132.097C103.92 132.097 108.269 135.679 99.1297 138.45C81.7509 143.712 26.7967 145.301 11.5305 138.66C6.04292 136.274 16.3341 132.963 19.5711 132.267C22.947 131.536 24.8765 131.672 24.8765 131.672C18.7735 127.375 -14.5706 140.11 7.93951 143.756C69.3272 153.707 119.843 139.276 103.92 132.097ZM39.5883 85.3801C39.5883 85.3801 11.6356 92.0163 29.6899 94.4256C37.3128 95.4457 52.509 95.2152 66.6642 94.0295C78.2325 93.0547 89.8485 90.9806 89.8485 90.9806C89.8485 90.9806 85.7694 92.7267 82.8184 94.7407C54.4324 102.203 -0.404316 98.7314 15.3825 91.0986C28.7334 84.6484 39.5888 85.3801 39.5888 85.3801H39.5883ZM89.7332 113.395C118.589 98.4078 105.247 84.0057 95.935 85.9462C93.6524 86.4207 92.6348 86.832 92.6348 86.832C92.6348 86.832 93.4823 85.5056 95.1005 84.9314C113.523 78.4577 127.692 104.024 89.1534 114.15C89.1534 114.15 89.6 113.752 89.7332 113.395Z" fill="#5382A1"/>
<path d="M72.3361 0.765094C72.3361 0.765094 88.3171 16.7437 57.179 41.3129C32.2099 61.0223 51.4853 72.2598 57.1688 85.0992C42.5937 71.9558 31.8973 60.3853 39.0735 49.6169C49.6056 33.8088 78.7838 26.1448 72.3361 0.764648" fill="#E76F00"/>
<path d="M42.424 154.006C70.122 155.778 112.655 153.023 113.662 139.923C113.662 139.923 111.726 144.889 90.7716 148.833C67.1309 153.279 37.9736 152.76 20.6799 149.911C20.6803 149.911 24.2201 152.839 42.4245 154.006" fill="#5382A1"/>
</g>
<defs>
<clipPath id="clip0_613_274">
<rect width="114" height="154" fill="white" transform="translate(0 0.599976)"/>
</clipPath>
</defs>
</svg>
