<svg width="155" height="155" viewBox="0 0 155 155" fill="none" xmlns="http://www.w3.org/2000/svg">
<g clip-path="url(#clip0_654_689)">
<path d="M36.2591 73.2538C49.442 77.8848 63.3493 80.1141 77.3201 79.8358C91.2911 80.1123 105.198 77.8811 118.381 73.2483C128.671 69.2372 132.32 64.7793 132.32 62.2138V42.6C128.722 45.0078 124.863 46.9994 120.816 48.5365C106.868 53.528 92.133 55.9615 77.3201 55.72C62.5084 55.957 47.775 53.5274 33.8246 48.5476C29.7752 47.0103 25.9152 45.0148 22.3201 42.6V62.1862C22.3201 64.8014 25.9801 69.2372 36.2591 73.2538ZM36.2591 110.247C40.9162 112.022 45.7186 113.39 50.6122 114.335C59.412 116.036 68.3572 116.874 77.3201 116.834C86.2827 116.875 95.2279 116.04 104.028 114.341C108.922 113.395 113.724 112.027 118.381 110.252C128.671 106.241 132.32 101.783 132.32 99.2179V80.5145C129.346 82.3029 126.221 83.826 122.98 85.0662C108.327 90.2511 92.8612 92.7609 77.3201 92.4758C61.7772 92.752 46.3114 90.2329 31.6606 85.0386C28.4208 83.7952 25.2955 82.2722 22.3201 80.4869V99.2069C22.3201 101.778 25.9801 106.219 36.2591 110.247V110.247ZM77.3201 154.6C107.682 154.6 132.32 144.978 132.32 133.116V117.463C129.615 119.093 126.781 120.499 123.846 121.668L122.98 122.015C108.33 127.215 92.8639 129.74 77.3201 129.469C61.7756 129.748 46.3083 127.223 31.6606 122.015C31.3625 121.905 31.0755 121.778 30.7939 121.668C27.8594 120.499 25.0253 119.093 22.3201 117.463V133.116C22.3201 144.978 46.9577 154.6 77.3201 154.6Z" fill="#FFDA44"/>
<path d="M77.3201 42.6C107.696 42.6 132.32 33.198 132.32 21.6C132.32 10.002 107.696 0.599976 77.3201 0.599976C46.9444 0.599976 22.3201 10.002 22.3201 21.6C22.3201 33.198 46.9444 42.6 77.3201 42.6Z" fill="#FFDA44"/>
</g>
<defs>
<clipPath id="clip0_654_689">
<rect width="154" height="154" fill="white" transform="translate(0.320068 0.599976)"/>
</clipPath>
</defs>
</svg>
